# Blender 3.4.1
# www.blender.org
mtllib eventile.mtl
o Cube
v 1.000000 -0.227308 -1.000000
v 1.000000 0.227308 -1.000000
v 1.000000 -0.227308 1.000000
v 1.000000 0.227308 1.000000
v -1.000000 -0.227308 -1.000000
v -1.000000 0.227308 -1.000000
v -1.000000 -0.227308 1.000000
v -1.000000 0.227308 1.000000
vn -0.0000 -1.0000 -0.0000
vn -0.0000 -0.0000 1.0000
vn -1.0000 -0.0000 -0.0000
vn -0.0000 1.0000 -0.0000
vn 1.0000 -0.0000 -0.0000
vn -0.0000 -0.0000 -1.0000
vt 0.625000 0.500000
vt 0.375000 0.500000
vt 0.625000 0.750000
vt 0.375000 0.750000
vt 0.875000 0.500000
vt 0.625000 0.250000
vt 0.125000 0.500000
vt 0.375000 0.250000
vt 0.875000 0.750000
vt 0.625000 1.000000
vt 0.625000 0.000000
vt 0.375000 1.000000
vt 0.375000 0.000000
vt 0.125000 0.750000
s 0
usemtl Material
f 1/1/1 3/3/1 7/9/1 5/5/1
f 4/4/2 8/12/2 7/10/2 3/3/2
f 8/13/3 6/8/3 5/6/3 7/11/3
f 6/7/4 8/14/4 4/4/4 2/2/4
f 2/2/5 4/4/5 3/3/5 1/1/5
f 6/8/6 2/2/6 1/1/6 5/6/6
o Cube.001
v -0.532449 1.538278 -0.834643
v -0.532449 0.135583 -0.834643
v -0.532449 1.538278 -0.584198
v -0.532449 0.135583 -0.584198
v -0.898800 1.538278 -0.834643
v -0.898800 0.135583 -0.834643
v -0.898800 1.538278 -0.584198
v -0.898800 0.135583 -0.584198
vn -0.0000 1.0000 -0.0000
vn -0.0000 -0.0000 1.0000
vn -1.0000 -0.0000 -0.0000
vn -0.0000 -1.0000 -0.0000
vn 1.0000 -0.0000 -0.0000
vn -0.0000 -0.0000 -1.0000
vt 0.625000 0.500000
vt 0.375000 0.500000
vt 0.625000 0.750000
vt 0.375000 0.750000
vt 0.875000 0.500000
vt 0.625000 0.250000
vt 0.125000 0.500000
vt 0.375000 0.250000
vt 0.875000 0.750000
vt 0.625000 1.000000
vt 0.625000 0.000000
vt 0.375000 1.000000
vt 0.375000 0.000000
vt 0.125000 0.750000
s 0
usemtl Material.001
f 9/15/7 13/19/7 15/23/7 11/17/7
f 12/18/8 11/17/8 15/24/8 16/26/8
f 16/27/9 15/25/9 13/20/9 14/22/9
f 14/21/10 10/16/10 12/18/10 16/28/10
f 10/16/11 9/15/11 11/17/11 12/18/11
f 14/22/12 13/20/12 9/15/12 10/16/12
o Cube.002
v -0.532449 0.986678 0.477155
v -0.532449 1.708817 -0.725372
v -0.532449 0.771972 0.348220
v -0.532449 1.494110 -0.854307
v -0.898800 0.986678 0.477155
v -0.898800 1.708817 -0.725372
v -0.898800 0.771972 0.348220
v -0.898800 1.494110 -0.854307
vn -0.0000 -0.5148 0.8573
vn -0.0000 -0.8573 -0.5148
vn -1.0000 -0.0000 -0.0000
vn -0.0000 0.5148 -0.8573
vn 1.0000 -0.0000 -0.0000
vn -0.0000 0.8573 0.5148
vt 0.625000 0.500000
vt 0.375000 0.500000
vt 0.625000 0.750000
vt 0.375000 0.750000
vt 0.875000 0.500000
vt 0.625000 0.250000
vt 0.125000 0.500000
vt 0.375000 0.250000
vt 0.875000 0.750000
vt 0.625000 1.000000
vt 0.625000 0.000000
vt 0.375000 1.000000
vt 0.375000 0.000000
vt 0.125000 0.750000
s 0
usemtl Material.002
f 17/29/13 21/33/13 23/37/13 19/31/13
f 20/32/14 19/31/14 23/38/14 24/40/14
f 24/41/15 23/39/15 21/34/15 22/36/15
f 22/35/16 18/30/16 20/32/16 24/42/16
f 18/30/17 17/29/17 19/31/17 20/32/17
f 22/36/18 21/34/18 17/29/18 18/30/18
