# Blender 3.5.1
# www.blender.org
mtllib platform1.mtl
o Cube
v -2.896449 -0.652271 2.955329
v -2.896449 0.652271 2.955329
v -2.896449 -0.652271 -2.955329
v -2.896449 0.652271 -2.955329
v 2.896449 -0.652271 2.955329
v 2.896449 0.652271 2.955329
v 2.896449 -0.652271 -2.955329
v 2.896449 0.652271 -2.955329
v 2.541658 0.538951 2.486863
v 2.541658 0.959055 2.486863
v 2.541658 0.538951 2.066758
v 2.541658 0.959055 2.066758
v 2.961762 0.538951 2.486863
v 2.961762 0.959055 2.486863
v 2.961762 0.538951 2.066758
v 2.961762 0.959055 2.066758
v -2.857067 0.409937 3.111854
v -2.857067 1.514951 3.111854
v -2.857067 0.409937 2.006841
v -2.857067 1.514951 2.006841
v -1.752053 0.409937 3.111854
v -1.752053 1.514951 3.111854
v -1.752053 0.409937 2.006841
v -1.752053 1.514951 2.006841
v -1.497360 -0.011602 3.202425
v -1.497360 1.093411 3.202425
v -1.497360 -0.011602 2.097411
v -1.497360 1.093411 2.097411
v -0.392347 -0.011602 3.202425
v -0.392347 1.093411 3.202425
v -0.392347 -0.011602 2.097411
v -0.392347 1.093411 2.097411
v -1.752216 0.732751 2.726768
v -1.752216 1.500175 2.726768
v -1.752216 0.732751 1.959345
v -1.752216 1.500175 1.959345
v -0.984792 0.732751 2.726768
v -0.984792 1.500175 2.726768
v -0.984792 0.732751 1.959345
v -0.984792 1.500175 1.959345
v -0.635200 0.717691 2.532210
v -0.635200 1.485115 2.532210
v -0.635200 0.717691 1.764786
v -0.635200 1.485115 1.764786
v 0.132224 0.717691 2.532210
v 0.132224 1.485115 2.532210
v 0.132224 0.717691 1.764786
v 0.132224 1.485115 1.764786
v -0.491902 0.261924 3.558022
v -0.491902 1.168928 3.558022
v -0.491902 0.261924 2.651018
v -0.491902 1.168928 2.651018
v 0.415101 0.261924 3.558022
v 0.415101 1.168928 3.558022
v 0.415101 0.261924 2.651018
v 0.415101 1.168928 2.651018
v -0.064874 0.404817 3.069833
v -0.064874 1.311820 3.069833
v -0.064874 0.404817 2.162829
v -0.064874 1.311820 2.162829
v 0.842129 0.404817 3.069833
v 0.842129 1.311820 3.069833
v 0.842129 0.404817 2.162829
v 0.842129 1.311820 2.162829
v 1.055741 0.704107 2.765819
v 1.055741 1.385255 2.765819
v 1.055741 0.704107 2.084671
v 1.055741 1.385255 2.084671
v 1.736889 0.704107 2.765819
v 1.736889 1.385255 2.765819
v 1.736889 0.704107 2.084671
v 1.736889 1.385255 2.084671
v 0.943827 0.275601 3.505370
v 0.943827 0.956749 3.505370
v 0.943827 0.275601 2.824221
v 0.943827 0.956749 2.824221
v 1.624975 0.275601 3.505370
v 1.624975 0.956749 3.505370
v 1.624975 0.275601 2.824221
v 1.624975 0.956749 2.824221
v 1.749738 0.258565 3.398244
v 1.749738 1.154052 3.398244
v 1.749738 0.258565 2.502756
v 1.749738 1.154052 2.502756
v 2.645225 0.258565 3.398244
v 2.645225 1.154052 3.398244
v 2.645225 0.258565 2.502756
v 2.645225 1.154052 2.502756
v 1.636246 0.430834 2.605605
v 1.636246 1.140648 2.605605
v 1.636246 0.430834 1.895791
v 1.636246 1.140648 1.895791
v 2.346060 0.430834 2.605605
v 2.346060 1.140648 2.605605
v 2.346060 0.430834 1.895791
v 2.346060 1.140648 1.895791
v -2.669537 0.514357 -1.865129
v -2.669537 1.483627 -1.865129
v -2.669537 0.514357 -2.883678
v -2.669537 1.483627 -2.883678
v 2.669537 0.514357 -1.865129
v 2.669537 1.483627 -1.865129
v 2.669537 0.514357 -2.883678
v 2.669537 1.483627 -2.883678
vn -1.0000 -0.0000 -0.0000
vn -0.0000 -0.0000 -1.0000
vn 1.0000 -0.0000 -0.0000
vn -0.0000 -0.0000 1.0000
vn -0.0000 -1.0000 -0.0000
vn -0.0000 1.0000 -0.0000
vt 0.375000 0.000000
vt 0.375000 1.000000
vt 0.125000 0.750000
vt 0.625000 0.000000
vt 0.625000 1.000000
vt 0.875000 0.750000
vt 0.375000 0.250000
vt 0.125000 0.500000
vt 0.625000 0.250000
vt 0.875000 0.500000
vt 0.375000 0.750000
vt 0.625000 0.750000
vt 0.375000 0.500000
vt 0.625000 0.500000
vt 0.375000 0.000000
vt 0.375000 1.000000
vt 0.125000 0.750000
vt 0.625000 0.000000
vt 0.625000 1.000000
vt 0.875000 0.750000
vt 0.375000 0.250000
vt 0.125000 0.500000
vt 0.625000 0.250000
vt 0.875000 0.500000
vt 0.375000 0.750000
vt 0.625000 0.750000
vt 0.375000 0.500000
vt 0.625000 0.500000
vt 0.375000 0.000000
vt 0.375000 1.000000
vt 0.125000 0.750000
vt 0.625000 0.000000
vt 0.625000 1.000000
vt 0.875000 0.750000
vt 0.375000 0.250000
vt 0.125000 0.500000
vt 0.625000 0.250000
vt 0.875000 0.500000
vt 0.375000 0.750000
vt 0.625000 0.750000
vt 0.375000 0.500000
vt 0.625000 0.500000
vt 0.375000 0.000000
vt 0.375000 1.000000
vt 0.125000 0.750000
vt 0.625000 0.000000
vt 0.625000 1.000000
vt 0.875000 0.750000
vt 0.375000 0.250000
vt 0.125000 0.500000
vt 0.625000 0.250000
vt 0.875000 0.500000
vt 0.375000 0.750000
vt 0.625000 0.750000
vt 0.375000 0.500000
vt 0.625000 0.500000
vt 0.375000 0.000000
vt 0.375000 1.000000
vt 0.125000 0.750000
vt 0.625000 0.000000
vt 0.625000 1.000000
vt 0.875000 0.750000
vt 0.375000 0.250000
vt 0.125000 0.500000
vt 0.625000 0.250000
vt 0.875000 0.500000
vt 0.375000 0.750000
vt 0.625000 0.750000
vt 0.375000 0.500000
vt 0.625000 0.500000
vt 0.375000 0.000000
vt 0.375000 1.000000
vt 0.125000 0.750000
vt 0.625000 0.000000
vt 0.625000 1.000000
vt 0.875000 0.750000
vt 0.375000 0.250000
vt 0.125000 0.500000
vt 0.625000 0.250000
vt 0.875000 0.500000
vt 0.375000 0.750000
vt 0.625000 0.750000
vt 0.375000 0.500000
vt 0.625000 0.500000
vt 0.375000 0.000000
vt 0.375000 1.000000
vt 0.125000 0.750000
vt 0.625000 0.000000
vt 0.625000 1.000000
vt 0.875000 0.750000
vt 0.375000 0.250000
vt 0.125000 0.500000
vt 0.625000 0.250000
vt 0.875000 0.500000
vt 0.375000 0.750000
vt 0.625000 0.750000
vt 0.375000 0.500000
vt 0.625000 0.500000
vt 0.375000 0.000000
vt 0.375000 1.000000
vt 0.125000 0.750000
vt 0.625000 0.000000
vt 0.625000 1.000000
vt 0.875000 0.750000
vt 0.375000 0.250000
vt 0.125000 0.500000
vt 0.625000 0.250000
vt 0.875000 0.500000
vt 0.375000 0.750000
vt 0.625000 0.750000
vt 0.375000 0.500000
vt 0.625000 0.500000
vt 0.375000 0.000000
vt 0.375000 1.000000
vt 0.125000 0.750000
vt 0.625000 0.000000
vt 0.625000 1.000000
vt 0.875000 0.750000
vt 0.375000 0.250000
vt 0.125000 0.500000
vt 0.625000 0.250000
vt 0.875000 0.500000
vt 0.375000 0.750000
vt 0.625000 0.750000
vt 0.375000 0.500000
vt 0.625000 0.500000
vt 0.375000 0.000000
vt 0.375000 1.000000
vt 0.125000 0.750000
vt 0.625000 0.000000
vt 0.625000 1.000000
vt 0.875000 0.750000
vt 0.375000 0.250000
vt 0.125000 0.500000
vt 0.625000 0.250000
vt 0.875000 0.500000
vt 0.375000 0.750000
vt 0.625000 0.750000
vt 0.375000 0.500000
vt 0.625000 0.500000
vt 0.375000 0.000000
vt 0.375000 1.000000
vt 0.125000 0.750000
vt 0.625000 0.000000
vt 0.625000 1.000000
vt 0.875000 0.750000
vt 0.375000 0.250000
vt 0.125000 0.500000
vt 0.625000 0.250000
vt 0.875000 0.500000
vt 0.375000 0.750000
vt 0.625000 0.750000
vt 0.375000 0.500000
vt 0.625000 0.500000
vt 0.375000 0.000000
vt 0.375000 1.000000
vt 0.125000 0.750000
vt 0.625000 0.000000
vt 0.625000 1.000000
vt 0.875000 0.750000
vt 0.375000 0.250000
vt 0.125000 0.500000
vt 0.625000 0.250000
vt 0.875000 0.500000
vt 0.375000 0.750000
vt 0.625000 0.750000
vt 0.375000 0.500000
vt 0.625000 0.500000
vt 0.375000 0.000000
vt 0.375000 1.000000
vt 0.125000 0.750000
vt 0.625000 0.000000
vt 0.625000 1.000000
vt 0.875000 0.750000
vt 0.375000 0.250000
vt 0.125000 0.500000
vt 0.625000 0.250000
vt 0.875000 0.500000
vt 0.375000 0.750000
vt 0.625000 0.750000
vt 0.375000 0.500000
vt 0.625000 0.500000
s 0
usemtl Material.001
f 1/1/1 2/4/1 4/9/1 3/7/1
f 3/7/2 4/9/2 8/14/2 7/13/2
f 7/13/3 8/14/3 6/12/3 5/11/3
f 5/11/4 6/12/4 2/5/4 1/2/4
f 3/8/5 7/13/5 5/11/5 1/3/5
f 8/14/6 4/10/6 2/6/6 6/12/6
f 97/169/1 98/172/1 100/177/1 99/175/1
f 99/175/2 100/177/2 104/182/2 103/181/2
f 103/181/3 104/182/3 102/180/3 101/179/3
f 101/179/4 102/180/4 98/173/4 97/170/4
f 99/176/5 103/181/5 101/179/5 97/171/5
f 104/182/6 100/178/6 98/174/6 102/180/6
usemtl Material
f 9/15/1 10/18/1 12/23/1 11/21/1
f 11/21/2 12/23/2 16/28/2 15/27/2
f 15/27/3 16/28/3 14/26/3 13/25/3
f 13/25/4 14/26/4 10/19/4 9/16/4
f 11/22/5 15/27/5 13/25/5 9/17/5
f 16/28/6 12/24/6 10/20/6 14/26/6
f 17/29/1 18/32/1 20/37/1 19/35/1
f 19/35/2 20/37/2 24/42/2 23/41/2
f 23/41/3 24/42/3 22/40/3 21/39/3
f 21/39/4 22/40/4 18/33/4 17/30/4
f 19/36/5 23/41/5 21/39/5 17/31/5
f 24/42/6 20/38/6 18/34/6 22/40/6
f 25/43/1 26/46/1 28/51/1 27/49/1
f 27/49/2 28/51/2 32/56/2 31/55/2
f 31/55/3 32/56/3 30/54/3 29/53/3
f 29/53/4 30/54/4 26/47/4 25/44/4
f 27/50/5 31/55/5 29/53/5 25/45/5
f 32/56/6 28/52/6 26/48/6 30/54/6
f 33/57/1 34/60/1 36/65/1 35/63/1
f 35/63/2 36/65/2 40/70/2 39/69/2
f 39/69/3 40/70/3 38/68/3 37/67/3
f 37/67/4 38/68/4 34/61/4 33/58/4
f 35/64/5 39/69/5 37/67/5 33/59/5
f 40/70/6 36/66/6 34/62/6 38/68/6
f 41/71/1 42/74/1 44/79/1 43/77/1
f 43/77/2 44/79/2 48/84/2 47/83/2
f 47/83/3 48/84/3 46/82/3 45/81/3
f 45/81/4 46/82/4 42/75/4 41/72/4
f 43/78/5 47/83/5 45/81/5 41/73/5
f 48/84/6 44/80/6 42/76/6 46/82/6
f 49/85/1 50/88/1 52/93/1 51/91/1
f 51/91/2 52/93/2 56/98/2 55/97/2
f 55/97/3 56/98/3 54/96/3 53/95/3
f 53/95/4 54/96/4 50/89/4 49/86/4
f 51/92/5 55/97/5 53/95/5 49/87/5
f 56/98/6 52/94/6 50/90/6 54/96/6
f 57/99/1 58/102/1 60/107/1 59/105/1
f 59/105/2 60/107/2 64/112/2 63/111/2
f 63/111/3 64/112/3 62/110/3 61/109/3
f 61/109/4 62/110/4 58/103/4 57/100/4
f 59/106/5 63/111/5 61/109/5 57/101/5
f 64/112/6 60/108/6 58/104/6 62/110/6
f 65/113/1 66/116/1 68/121/1 67/119/1
f 67/119/2 68/121/2 72/126/2 71/125/2
f 71/125/3 72/126/3 70/124/3 69/123/3
f 69/123/4 70/124/4 66/117/4 65/114/4
f 67/120/5 71/125/5 69/123/5 65/115/5
f 72/126/6 68/122/6 66/118/6 70/124/6
f 73/127/1 74/130/1 76/135/1 75/133/1
f 75/133/2 76/135/2 80/140/2 79/139/2
f 79/139/3 80/140/3 78/138/3 77/137/3
f 77/137/4 78/138/4 74/131/4 73/128/4
f 75/134/5 79/139/5 77/137/5 73/129/5
f 80/140/6 76/136/6 74/132/6 78/138/6
f 81/141/1 82/144/1 84/149/1 83/147/1
f 83/147/2 84/149/2 88/154/2 87/153/2
f 87/153/3 88/154/3 86/152/3 85/151/3
f 85/151/4 86/152/4 82/145/4 81/142/4
f 83/148/5 87/153/5 85/151/5 81/143/5
f 88/154/6 84/150/6 82/146/6 86/152/6
f 89/155/1 90/158/1 92/163/1 91/161/1
f 91/161/2 92/163/2 96/168/2 95/167/2
f 95/167/3 96/168/3 94/166/3 93/165/3
f 93/165/4 94/166/4 90/159/4 89/156/4
f 91/162/5 95/167/5 93/165/5 89/157/5
f 96/168/6 92/164/6 90/160/6 94/166/6
